<svg width="671" height="671" viewBox="0 0 671 671" fill="none" xmlns="http://www.w3.org/2000/svg">
<path d="M535.297 502.157C586.469 442.417 612.515 365.183 607.969 286.663C603.427 208.133 568.646 134.423 510.922 80.9832C453.198 27.5459 377.029 -1.45943 298.375 0.0565686C219.735 1.57217 144.735 33.4886 89.1085 89.1086C33.4885 144.729 1.57254 219.734 0.0565402 298.375C-1.45906 377.021 27.5459 453.189 80.9832 510.922C134.415 568.646 208.129 603.427 286.663 607.969C365.19 612.515 442.423 586.469 502.157 535.297L630.797 663.786C636.755 669.338 645.171 671.38 653.01 669.182C660.848 666.984 666.974 660.859 669.171 653.02C671.369 645.182 669.327 636.766 663.775 630.807L535.297 502.157ZM48.4165 305.063C48.3697 248.553 66.9792 193.61 101.349 148.757C135.718 103.902 183.933 71.6419 238.509 56.9859C293.087 42.3299 350.973 46.09 403.189 67.689C455.407 89.2876 499.038 127.517 527.309 176.444C555.585 225.37 566.923 282.261 559.563 338.284C552.204 394.31 526.563 446.346 486.615 486.31H486.459V486.467C450.59 522.379 404.866 546.841 355.084 556.764C305.303 566.681 253.699 561.608 206.804 542.185C159.908 522.764 119.826 489.868 91.6323 447.655C63.439 405.447 48.403 355.821 48.4243 305.055L48.4165 305.063Z" fill="white"/>
</svg>
