<svg width="220" height="299" viewBox="0 0 220 299" fill="none" xmlns="http://www.w3.org/2000/svg">
  <path d="M165.777 96.0805C169.145 92.7235 174.606 92.7235 177.974 96.0805C181.343 99.4376 181.343 104.88 177.974 108.237C174.606 111.595 169.145 111.595 165.777 108.237C162.408 104.88 162.408 99.4376 165.777 96.0805Z" fill="black"/>
  <path d="M165.777 140.93C169.145 137.573 174.606 137.573 177.974 140.93C181.343 144.287 181.343 149.73 177.974 153.087C174.606 156.444 169.145 156.444 165.777 153.087C162.408 149.73 162.408 144.287 165.777 140.93Z" fill="black"/>
  <path d="M95.2767 99.8181C98.645 96.461 104.106 96.461 107.474 99.8181C110.843 103.175 110.843 108.618 107.474 111.975C104.106 115.332 98.645 115.332 95.2767 111.975C91.9084 108.618 91.9084 103.175 95.2767 99.8181Z" fill="black"/>
  <path d="M95.2767 144.668C98.645 141.311 104.106 141.311 107.474 144.668C110.843 148.025 110.843 153.468 107.474 156.825C104.106 160.182 98.645 160.182 95.2767 156.825C91.9084 153.468 91.9084 148.025 95.2767 144.668Z" fill="black"/>
  <path d="M42.7767 99.8181C46.145 96.461 51.606 96.461 54.9743 99.8181C58.3426 103.175 58.3426 108.618 54.9743 111.975C51.606 115.332 46.145 115.332 42.7767 111.975C39.4084 108.618 39.4084 103.175 42.7767 99.8181Z" fill="black"/>
  <path d="M95.2767 54.968C98.645 51.6109 104.106 51.6109 107.474 54.968C110.843 58.325 110.843 63.7679 107.474 67.1249C104.106 70.482 98.645 70.482 95.2767 67.1249C91.9084 63.7679 91.9084 58.325 95.2767 54.968Z" fill="black"/>
  <path d="M42.7767 54.968C46.145 51.6109 51.606 51.6109 54.9743 54.968C58.3426 58.325 58.3426 63.7679 54.9743 67.1249C51.606 70.482 46.145 70.482 42.7767 67.1249C39.4084 63.7679 39.4084 58.325 42.7767 54.968Z" fill="black"/>
  <path d="M42.7767 144.668C46.145 141.311 51.606 141.311 54.9743 144.668C58.3426 148.025 58.3426 153.468 54.9743 156.825C51.606 160.182 46.145 160.182 42.7767 156.825C39.4084 153.468 39.4084 148.025 42.7767 144.668Z" fill="black"/>
  <path fill-rule="evenodd" clip-rule="evenodd" d="M220 53.5708C220 51.2583 219.078 49.0391 217.438 47.404C215.797 45.7688 213.57 44.85 211.25 44.85H150V8.72083C150 6.40827 149.078 4.18909 147.437 2.55396C145.797 0.918828 143.57 0 141.25 0H8.75C3.918 0 0 3.90494 0 8.72083V290.404C0 292.646 0.940862 294.705 2.625 296.384C4.30913 298.062 6.37555 299 8.625 299H211.25C213.626 299 215.59 298.242 217.438 296.384C219.231 294.58 220 293.02 220 290.404V53.5708ZM17.5 17.4417V281.558H132.5V17.4417H17.5ZM202.5 281.558V62.2917H150V281.558H202.5Z" fill="black"/>
  <path d="M110.751 206.061C110.751 203.748 109.829 201.529 108.188 199.894C106.547 198.259 104.321 197.34 102.001 197.34H48.5006C43.6686 197.34 39.5 201.245 39.5 206.061V281.558H57.2506V214.782H93.2505V281.558H110.751V261.625V206.061Z" fill="black"/>
</svg>
