<svg width="292" height="300" viewBox="0 0 292 300" fill="none" xmlns="http://www.w3.org/2000/svg">
  <path fill-rule="evenodd" clip-rule="evenodd" d="M291.198 136.572C291.198 105.346 279.966 76.5323 261.092 53.5C255.802 47.0444 249.912 41.043 243.5 35.57C217.624 13.4822 183.259 0 145.599 0C65.3144 0 0 61.2619 0 136.572V140.326V300H291.199V140.326L291.198 136.572ZM113.151 165.11V282.732H178.044L178.047 165.11H113.151ZM195.552 282.732H273.638V142.819C271.5 73.3843 220.403 17.5125 145.599 17.5125C70.7949 17.5125 17.5594 73.5 17.5594 142.819V282.732H95.6384V165.11H80.586V147.604H210.605V165.11H195.552V282.732Z" fill="black"/>
  <path d="M261.092 53.5V0H243.5V35.57C249.912 41.043 255.802 47.0444 261.092 53.5Z" fill="black"/>
</svg>
