<svg width="94" height="99" viewBox="0 0 94 99" fill="none" xmlns="http://www.w3.org/2000/svg">
<path fill-rule="evenodd" clip-rule="evenodd" d="M62.6795 93.5885V7.43021C62.6795 7.30656 62.6698 7.18654 62.6511 7.07082L62.6795 93.5885ZM54.8404 49.6147L54.8452 49.6147C54.8546 49.6148 54.864 49.6149 54.8737 49.6149C54.8624 49.6149 54.8513 49.6147 54.8404 49.6147Z" fill="black"/>
<path d="M54.789 49.6149C52.9801 49.6617 51.4965 51.1731 51.4965 52.9918C51.4965 54.8399 53.0254 56.3688 54.8737 56.3688C56.7219 56.3688 58.2508 54.84 58.2508 52.9918C58.2508 51.1437 56.7219 49.6149 54.8737 49.6149L54.8452 49.6147L54.8404 49.6147L54.8259 49.6146C54.8137 49.6145 54.8015 49.6145 54.789 49.6149Z" fill="black"/>
<path fill-rule="evenodd" clip-rule="evenodd" d="M17.6936 5.81741e-05C13.6182 5.81741e-05 10.2473 3.35498 10.2473 7.43021V93.5885H2.69602C1.20946 93.5946 0.00600506 94.798 1.352e-05 96.2837C-0.00225128 97.0016 0.280108 97.6909 0.785196 98.2005C1.29104 98.7101 1.97807 98.9977 2.69605 99H91.2828C92.0046 99.003 92.6969 98.7176 93.2072 98.208C93.7169 97.6977 94.0022 97.0054 94 96.2837C93.997 95.5665 93.7093 94.8795 93.1997 94.3736C92.6901 93.8686 92.0008 93.5862 91.2828 93.5885H83.7307V7.43015C83.7307 3.35493 80.3544 0 76.279 0L17.6936 5.81741e-05ZM17.6936 5.41675H60.6394C61.6868 5.41675 62.4926 6.0907 62.6511 7.07082C62.6698 7.18654 62.6795 7.30656 62.6795 7.43021V93.5885H15.6594V7.43021C15.6594 6.25928 16.5227 5.41675 17.6936 5.41675ZM76.2801 5.41675H70.1359C68.965 5.41675 68.1017 6.25928 68.1017 7.43021V93.5885H78.3202V7.43021C78.3202 6.25928 77.4511 5.41675 76.2801 5.41675Z" fill="black"/>
</svg>
