<svg
  width="94"
  height="100"
  viewBox="0 0 94 100"
  fill="none"
  xmlns="http://www.w3.org/2000/svg"
>
  <path
    d="M64.4999 60C58.2004 60 53.0437 65.1568 53.0437 71.4564C53.0437 74.0958 54.0187 76.4637 55.5302 78.4034C49.2373 81.8476 45 88.764 45 96.6598C45 97.2801 45.2465 97.8753 45.6855 98.3144C46.1241 98.753 46.7193 98.9995 47.3401 99H81.6599C82.2807 98.9995 82.8759 98.753 83.3145 98.3144C83.7535 97.8754 84 97.2801 84 96.6598C84 88.7635 79.7627 81.8466 73.4698 78.4034C74.9813 76.4631 75.9563 74.0958 75.9563 71.4564C75.9563 65.1568 70.7996 60 64.5001 60H64.4999ZM64.4999 64.6798C68.2698 64.6798 71.2758 67.6859 71.2758 71.4564C71.2758 73.8868 70.0184 75.981 68.1071 77.1846C67.6087 77.5051 67.2501 78.0029 67.1043 78.5781C66.9585 79.1526 67.0363 79.7615 67.322 80.2811C67.6076 80.8008 68.0799 81.1925 68.6435 81.3769C74.0756 83.0701 78.2678 88.0856 79.1247 94.3204H49.8749C50.7318 88.0856 54.924 83.0701 60.3561 81.3769C60.9198 81.1925 61.392 80.8007 61.6777 80.2811C61.9633 79.7615 62.0411 79.1527 61.8953 78.5781C61.7495 78.003 61.3909 77.5051 60.8926 77.1846C58.9817 75.9811 57.7238 73.8868 57.7238 71.4564C57.7238 67.6859 60.73 64.6798 64.4999 64.6798Z"
    fill="black"
  />
  <path
    d="M85.0386 99.9993H8.1156C3.64033 99.9993 0 96.3589 0 91.8837V38.259C0 35.5378 1.20195 32.982 3.29823 31.2477L36.8068 3.51336C42.4678 -1.17112 50.6847 -1.17112 56.3459 3.51336L89.8564 31.2477C91.9518 32.982 93.1546 35.5378 93.1546 38.259V91.8837C93.1546 96.3589 89.5143 99.9993 85.039 99.9993H85.0386ZM46.5771 5.75898C44.4112 5.75898 42.2466 6.48955 40.4799 7.95216L6.96939 35.6865C6.19989 36.3231 5.75863 37.2614 5.75863 38.2607V91.8854C5.75863 93.1842 6.8152 94.2415 8.11477 94.2415H85.0378C86.3367 94.2415 87.3939 93.1849 87.3939 91.8854V38.2607C87.3939 37.2614 86.9526 36.3229 86.1839 35.6865L52.6734 7.95216C50.9076 6.4903 48.7415 5.75898 46.5762 5.75898H46.5771Z"
    fill="black"
  />
  <path
    d="M30.4999 60C24.2004 60 19.0437 65.1568 19.0437 71.4564C19.0437 74.0958 20.0187 76.4637 21.5302 78.4034C15.2373 81.8476 11 88.764 11 96.6598C11 97.2801 11.2465 97.8753 11.6855 98.3144C12.1241 98.753 12.7193 98.9995 13.3401 99H47.6599C48.2807 98.9995 48.8759 98.753 49.3145 98.3144C49.7535 97.8754 50 97.2801 50 96.6598C50 88.7635 45.7627 81.8466 39.4698 78.4034C40.9813 76.4631 41.9563 74.0958 41.9563 71.4564C41.9563 65.1568 36.7996 60 30.5001 60H30.4999ZM30.4999 64.6798C34.2698 64.6798 37.2758 67.6859 37.2758 71.4564C37.2758 73.8868 36.0184 75.981 34.1071 77.1846C33.6087 77.5051 33.2501 78.0029 33.1043 78.5781C32.9585 79.1526 33.0363 79.7615 33.322 80.2811C33.6076 80.8008 34.0799 81.1925 34.6435 81.3769C40.0756 83.0701 44.2678 88.0856 45.1247 94.3204H15.8749C16.7318 88.0856 20.924 83.0701 26.3561 81.3769C26.9198 81.1925 27.392 80.8007 27.6777 80.2811C27.9633 79.7615 28.0411 79.1527 27.8953 78.5781C27.7495 78.003 27.3909 77.5051 26.8926 77.1846C24.9817 75.9811 23.7238 73.8868 23.7238 71.4564C23.7238 67.6859 26.73 64.6798 30.4999 64.6798Z"
    fill="black"
  />
</svg>
