<svg width="292" height="300" viewBox="0 0 292 300" fill="none" xmlns="http://www.w3.org/2000/svg">
  <path d="M228.005 225.743C228.005 221.917 231.105 218.82 234.928 218.82C238.751 218.82 241.715 221.866 241.715 225.693C241.715 229.516 238.751 232.666 234.928 232.666C231.105 232.666 228.005 229.566 228.005 225.743Z" fill="black"/>
  <path d="M228.005 225.743C228.005 221.917 231.105 218.82 234.928 218.82C238.751 218.82 241.715 221.866 241.715 225.693C241.715 229.516 238.751 232.666 234.928 232.666C231.105 232.666 228.005 229.566 228.005 225.743Z" fill="black"/>
  <path d="M228.005 170.358C228.005 166.532 231.105 163.435 234.928 163.435C238.751 163.435 241.715 166.532 241.715 170.358C241.715 174.181 238.751 177.281 234.928 177.281C231.105 177.281 228.005 174.181 228.005 170.358Z" fill="black"/>
  <path d="M228.005 170.358C228.005 166.532 231.105 163.435 234.928 163.435C238.751 163.435 241.715 166.532 241.715 170.358C241.715 174.181 238.751 177.281 234.928 177.281C231.105 177.281 228.005 174.181 228.005 170.358Z" fill="black"/>
  <path d="M62.4484 163.435C58.6253 163.435 55.5253 166.532 55.5253 170.358C55.5253 174.181 58.6253 177.281 62.4484 177.281C66.2715 177.281 69.2353 174.181 69.2353 170.358C69.2353 166.532 66.2715 163.435 62.4484 163.435Z" fill="black"/>
  <path d="M228.005 114.973C228.005 111.147 231.105 108.05 234.928 108.05C238.751 108.05 241.715 111.147 241.715 114.973C241.715 118.796 238.751 121.896 234.928 121.896C231.105 121.896 228.005 118.796 228.005 114.973Z" fill="black"/>
  <path d="M228.005 114.973C228.005 111.147 231.105 108.05 234.928 108.05C238.751 108.05 241.715 111.147 241.715 114.973C241.715 118.796 238.751 121.896 234.928 121.896C231.105 121.896 228.005 118.796 228.005 114.973Z" fill="black"/>
  <path d="M62.4484 108.05C58.6253 108.05 55.5253 111.147 55.5253 114.973C55.5253 118.796 58.6253 121.896 62.4484 121.896C66.2715 121.896 69.2353 118.796 69.2353 114.973C69.2353 111.147 66.2715 108.05 62.4484 108.05Z" fill="black"/>
  <path d="M147.371 108.05C143.548 108.05 140.448 111.147 140.448 114.974C140.448 118.797 143.548 121.897 147.371 121.897C151.195 121.897 154.158 118.797 154.158 114.974C154.158 111.147 151.195 108.05 147.371 108.05Z" fill="black"/>
  <path fill-rule="evenodd" clip-rule="evenodd" d="M0 6.92308C0 3.09996 2.64298 0 6.4661 0H284.466C286.302 0 288.064 0.729399 289.362 2.02747C290.66 3.32555 291.389 5.08724 291.389 6.92308L291.385 73.8462V293.077C291.385 294.913 290.655 296.674 289.357 297.973C288.059 299.271 286.297 300 284.462 300H6.92308C3.09996 300 0 296.9 0 293.077V74.4V6.92308ZM171.924 219.231V286.154H123.462V219.231H171.924ZM17.8468 286.708V78.4H95.2314L147.693 42.4769L201.154 78.4H273.539V286.708H187.77V212.862C187.77 211.026 186.04 208.264 184.742 206.966C183.444 205.668 180.683 203.938 178.847 203.938H116.539C112.716 203.938 107.616 209.038 107.616 212.862V286.708H17.8468ZM267.674 14.4V60.5538H202.451L147.689 23.6308L92.9275 60.5538H17.8468V14.4H267.674Z" fill="black"/>
  <path fill-rule="evenodd" clip-rule="evenodd" d="M55.5253 225.742C55.5253 221.916 58.6252 218.819 62.4484 218.819C66.2715 218.819 69.2353 221.866 69.2353 225.692C69.2353 229.515 66.2715 232.665 62.4484 232.665C58.6252 232.665 55.5253 229.566 55.5253 225.742ZM234.928 218.82C231.105 218.82 228.005 221.917 228.005 225.743C228.005 229.566 231.105 232.666 234.928 232.666C238.751 232.666 241.715 229.516 241.715 225.693C241.715 221.866 238.751 218.82 234.928 218.82ZM62.4484 163.435C58.6253 163.435 55.5253 166.532 55.5253 170.358C55.5253 174.181 58.6253 177.281 62.4484 177.281C66.2715 177.281 69.2353 174.181 69.2353 170.358C69.2353 166.532 66.2715 163.435 62.4484 163.435ZM234.928 163.435C231.105 163.435 228.005 166.532 228.005 170.358C228.005 174.181 231.105 177.281 234.928 177.281C238.751 177.281 241.715 174.181 241.715 170.358C241.715 166.532 238.751 163.435 234.928 163.435ZM62.4484 108.05C58.6253 108.05 55.5253 111.147 55.5253 114.973C55.5253 118.796 58.6253 121.896 62.4484 121.896C66.2715 121.896 69.2353 118.796 69.2353 114.973C69.2353 111.147 66.2715 108.05 62.4484 108.05ZM234.928 108.05C231.105 108.05 228.005 111.147 228.005 114.973C228.005 118.796 231.105 121.896 234.928 121.896C238.751 121.896 241.715 118.796 241.715 114.973C241.715 111.147 238.751 108.05 234.928 108.05ZM147.371 108.05C143.548 108.05 140.448 111.147 140.448 114.974C140.448 118.797 143.548 121.897 147.371 121.897C151.195 121.897 154.158 118.797 154.158 114.974C154.158 111.147 151.195 108.05 147.371 108.05Z" fill="black"/>
</svg>
