<svg
  width="94"
  height="101"
  viewBox="0 0 94 101"
  fill="none"
  xmlns="http://www.w3.org/2000/svg"
>
  <path
    d="M85.3106 100.655H8.38757C3.9123 100.655 0.271973 97.0143 0.271973 92.539V38.9143C0.271973 36.1931 1.47392 33.6373 3.5702 31.903L37.0788 4.16868C42.7398 -0.515802 50.9567 -0.515802 56.6178 4.16868L90.1283 31.903C92.2238 33.6373 93.4266 36.1931 93.4266 38.9143V92.539C93.4266 97.0143 89.7862 100.655 85.311 100.655H85.3106ZM46.8491 6.4143C44.6832 6.4143 42.5185 7.14487 40.7519 8.60748L7.24136 36.3418C6.47186 36.9784 6.0306 37.9167 6.0306 38.916V92.5407C6.0306 93.8396 7.08717 94.8968 8.38674 94.8968H85.3098C86.6086 94.8968 87.6659 93.8403 87.6659 92.5407V38.916C87.6659 37.9167 87.2246 36.9782 86.4559 36.3418L52.9454 8.60748C51.1795 7.14562 49.0135 6.4143 46.8482 6.4143H46.8491Z"
    fill="black"
  />
  <path
    d="M64.1645 100.655C62.5741 100.655 61.2848 99.3652 61.2848 97.7749V64.2832C61.2848 60.0973 57.8787 56.6911 53.6927 56.6911L40.0043 56.6919C35.8183 56.6919 32.4122 60.098 32.4122 64.284L32.413 97.7757C32.413 99.366 31.1236 100.655 29.5333 100.655C27.943 100.655 26.6537 99.366 26.6537 97.7757V64.284C26.6537 56.9225 32.6428 50.9326 40.0051 50.9326H53.6935C61.055 50.9326 67.0449 56.9217 67.0449 64.284L67.0441 97.7757C67.0441 99.366 65.7548 100.655 64.1645 100.655V100.655Z"
    fill="black"
  />
</svg>
