<svg xmlns="http://www.w3.org/2000/svg" xmlns:xlink="http://www.w3.org/1999/xlink" viewBox="0 0 45 45" width="45" height="45" preserveAspectRatio="xMidYMid meet" style="width: 100%; height: 100%; transform: translate3d(0px, 0px, 0px);"><g clip-path="url(#__lottie_element_566)"><g transform="matrix(1,0,0,1,-22.625,-17.5)" opacity="1" style="display: block;"><g opacity="1" transform="matrix(1,0,0,1,40,40)"><path stroke-linecap="butt" stroke-linejoin="miter" fill-opacity="0" stroke-miterlimit="4" stroke="rgb(34,34,34)" stroke-opacity="1" stroke-width="2" d=" M-10,-12 C-10,-12 10,-12 10,-12 C12.208999633789062,-12 14,-10.208999633789062 14,-8 C14,-8 14,8 14,8 C14,10.208999633789062 12.208999633789062,12 10,12 C10,12 -10,12 -10,12 C-12.208999633789062,12 -14,10.208999633789062 -14,8 C-14,8 -14,-8 -14,-8 C-14,-10.208999633789062 -12.208999633789062,-12 -10,-12z"></path></g></g><g transform="matrix(1,0,0,1,-22.625,-17.5)" opacity="1" style="display: block;"><g opacity="1" transform="matrix(1,0,0,1,40,40)"><path stroke-linecap="butt" stroke-linejoin="miter" fill-opacity="0" stroke-miterlimit="4" stroke="rgb(34,34,34)" stroke-opacity="1" stroke-width="2" d=" M-2,2 C-2.062000036239624,2.875 -2,6 -2,6 C-2,6 2,6 2,6 C2,6 2,2 2,2 C2,2 6,2 6,2 C6,2 6,-2 6,-2 C6,-2 2,-2 2,-2 C2,-2 2,-6 2,-6 C2,-6 -2,-6 -2,-6 C-2,-6 -2,-2 -2,-2 C-2,-2 -6,-2 -6,-2 C-6,-2 -6,2 -6,2 C-6,2 -3,1.937999963760376 -2,2z"></path></g></g></g></svg>