<svg width="300" height="286" viewBox="0 0 300 286" fill="none" xmlns="http://www.w3.org/2000/svg">
  <path d="M101.189 47.5H51.3736C45.2044 47.5 36.4375 56.268 36.4375 62.4313V101.006C36.4375 107.173 45.2044 115.938 51.3736 115.938H101.189C107.358 115.938 116.125 107.169 116.125 101.006V62.4313C116.125 56.268 107.358 47.5 101.189 47.5ZM98.3129 97.2595C98.3129 97.7415 97.9212 98.1363 97.4389 98.1363H97.3402H55.1244C54.6421 98.1363 54.2505 97.7448 54.2505 97.2595V66.1847C54.2505 65.7026 54.6421 65.3079 55.1244 65.3079H97.4398C97.922 65.3079 98.3137 65.6994 98.3137 66.1847L98.3129 97.2595Z" fill="black"/>
  <path fill-rule="evenodd" clip-rule="evenodd" d="M300 212.246H291.461V197.245H276.691V212.246V212.693L260.133 212.246H257.988C258.08 211.139 258.158 210.025 258.158 208.894L258.163 44.2229C258.163 18.1205 240.966 0 213.868 0H44.2953C17.1976 0 0 18.1205 0 44.2229V212.721C0 237.404 16.2628 259.407 42.9851 260.55C46.3967 271.365 55.1838 285.065 75.574 285.714C91.5032 286.221 105.708 272.8 107.982 260.768H122.589C126.014 274.235 139.19 285.715 154.376 285.714C172.432 285.714 185.108 272.321 187.334 260.768H214.822C222.626 260.768 231.983 259.407 240.868 252.765C240.868 252.765 252.073 245.536 256.165 229.043H300V212.246ZM62.6594 252.232C62.6594 259.266 68.5398 265.091 75.574 265.091C82.6081 265.091 88.0102 259.266 88.0102 252.232C88.0102 245.198 82.6081 239.796 75.574 239.796C68.5399 239.796 62.6595 245.198 62.6594 252.232ZM141.629 252.37C141.629 259.404 147.346 265.091 154.381 265.091C161.415 265.091 167.132 259.404 167.132 252.37C167.132 245.336 161.415 239.649 154.381 239.649C147.346 239.649 141.629 245.336 141.629 252.37ZM210.047 240.145C227.313 240.145 237.529 233.778 237.529 216.548L237.533 215.632H20.6493V216.551C20.6486 232.143 32.0472 238.89 44.988 238.89C49.2666 227.838 60.9979 218.301 75.574 218.75C89.62 219.183 103.316 227.838 107.034 240.145H123.75C127.645 229.751 139.208 218.749 154.496 218.75C172.653 218.751 182.597 230.708 186.267 240.145H210.047ZM196.907 145.112V167.277L187.747 167.277V135.97H202.664V72.2695C202.664 68.0102 199.187 65.4971 194.92 65.4971H158.265C153.998 65.4971 150.522 68.0105 150.522 72.2695V198.836H202.663V145.112H196.907ZM219.477 198.833H237.529L237.535 44.2268C237.535 26.9961 231.143 20.6268 213.88 20.6268H49.0901C26.7857 20.6268 20.6486 26.9961 20.6486 44.2268V198.833H133.714V69.3966C133.714 60.0954 145.12 48.7008 154.442 48.7008H198.75C208.068 48.7008 219.477 60.0925 219.477 69.3966V198.833Z" fill="black"/>
</svg>
