<svg width="471" height="414" viewBox="0 0 471 414" fill="none" xmlns="http://www.w3.org/2000/svg">
<path d="M431.202 39.758C407.124 15.68 376.323 5.039 344.964 5.039C306.323 5.039 266.566 21.277 236.884 50.398C236.884 50.398 236.325 50.9566 235.763 50.9566C235.204 50.9566 235.204 50.9566 234.641 50.398C207.762 25.199 173.039 0 137.762 0C102.481 0 67.2035 13.441 40.3215 40.32C-13.4405 94.082 -13.4405 182 40.3215 235.76L224.002 408.8C227.361 411.601 231.283 413.281 235.764 413.281C239.685 413.281 244.162 411.601 247.525 408.8L431.205 235.76C458.08 208.315 470.96 172.475 470.96 137.198C470.96 101.917 458.081 66.636 431.202 39.757L431.202 39.758Z" />
</svg>
